<mxfile host="app.diagrams.net" modified="2021-02-24T08:06:56.875Z" agent="5.0 (Macintosh; Intel Mac OS X 11_1_0) AppleWebKit/537.36 (KHTML, like Gecko) Chrome/88.0.4324.182 Safari/537.36" etag="bjILXRg-m6B5AvgU5iRn" version="14.4.2" type="github">
  <diagram id="vYaldF28aRBP-LbZSaLc" name="第 1 页">
    <mxGraphModel dx="946" dy="535" grid="1" gridSize="10" guides="1" tooltips="1" connect="1" arrows="1" fold="1" page="1" pageScale="1" pageWidth="827" pageHeight="1169" math="0" shadow="0">
      <root>
        <mxCell id="0" />
        <mxCell id="1" parent="0" />
        <mxCell id="iDCBx6CYNDSBx6nvVt9U-3" value="" style="edgeStyle=orthogonalEdgeStyle;rounded=0;orthogonalLoop=1;jettySize=auto;html=1;" edge="1" parent="1" source="iDCBx6CYNDSBx6nvVt9U-1" target="iDCBx6CYNDSBx6nvVt9U-2">
          <mxGeometry relative="1" as="geometry" />
        </mxCell>
        <mxCell id="iDCBx6CYNDSBx6nvVt9U-1" value="" style="shape=parallelogram;perimeter=parallelogramPerimeter;whiteSpace=wrap;html=1;fixedSize=1;" vertex="1" parent="1">
          <mxGeometry x="350" y="250" width="120" height="60" as="geometry" />
        </mxCell>
        <mxCell id="iDCBx6CYNDSBx6nvVt9U-2" value="" style="ellipse;whiteSpace=wrap;html=1;" vertex="1" parent="1">
          <mxGeometry x="350" y="380" width="120" height="80" as="geometry" />
        </mxCell>
      </root>
    </mxGraphModel>
  </diagram>
</mxfile>
